<svg width="16" height="17" viewBox="0 0 16 17" fill="none" xmlns="http://www.w3.org/2000/svg">
<path d="M2.75 4.75001L13.25 4.75C13.6642 4.75 14 5.08579 14 5.5C14 5.91421 13.6642 6.25 13.25 6.25L2.75 6.25001C2.33579 6.25001 2 5.91422 2 5.5C2 5.08579 2.33579 4.75001 2.75 4.75001ZM4.75 7.75001L11.25 7.75C11.6642 7.75 12 8.08579 12 8.5C12 8.91422 11.6642 9.25 11.25 9.25L4.75 9.25001C4.33579 9.25001 4 8.91422 4 8.50001C4 8.08579 4.33579 7.75001 4.75 7.75001ZM9.25 10.75L6.75 10.75C6.33579 10.75 6 11.0858 6 11.5C6 11.9142 6.33579 12.25 6.75 12.25L9.25 12.25C9.66421 12.25 10 11.9142 10 11.5C10 11.0858 9.66421 10.75 9.25 10.75Z" fill="#192435"/>
</svg>
