<svg width="24" height="25" viewBox="0 0 24 25" fill="none" xmlns="http://www.w3.org/2000/svg">
<path d="M3.75 6.75001L20.25 6.75C20.6642 6.75 21 7.08579 21 7.5C21 7.91421 20.6642 8.25 20.25 8.25L3.75 8.25001C3.33579 8.25001 3 7.91422 3 7.50001C3 7.08579 3.33579 6.75001 3.75 6.75001ZM6.75 11.75L17.25 11.75C17.6642 11.75 18 12.0858 18 12.5C18 12.9142 17.6642 13.25 17.25 13.25L6.75 13.25C6.33579 13.25 6 12.9142 6 12.5C6 12.0858 6.33579 11.75 6.75 11.75ZM13.75 16.75L10.25 16.75C9.83579 16.75 9.5 17.0858 9.5 17.5C9.5 17.9142 9.83579 18.25 10.25 18.25L13.75 18.25C14.1642 18.25 14.5 17.9142 14.5 17.5C14.5 17.0858 14.1642 16.75 13.75 16.75Z" fill="#192435"/>
</svg>
