<svg width="24" height="25" viewBox="0 0 24 25" fill="none" xmlns="http://www.w3.org/2000/svg">
<path d="M12 7.75C10.697 7.75 9.75 8.70738 9.75 9.75915C9.75 10.1734 9.41421 10.5091 9 10.5091C8.58579 10.5091 8.25 10.1734 8.25 9.75915C8.25 7.76324 9.98926 6.25 12 6.25C14.0107 6.25 15.75 7.76324 15.75 9.75915C15.75 11.145 14.7505 12.2345 13.6382 12.7931C13.0545 13.0862 12.75 13.5106 12.75 13.8671V15C12.75 15.4142 12.4142 15.75 12 15.75C11.5858 15.75 11.25 15.4142 11.25 15V13.8671C11.25 12.6772 12.1668 11.8535 12.965 11.4526C13.7766 11.0451 14.25 10.3789 14.25 9.75915C14.25 8.70738 13.303 7.75 12 7.75Z" fill="#192435"/>
<path d="M12 17C12.4142 17 12.75 17.3358 12.75 17.75V18.25C12.75 18.6642 12.4142 19 12 19C11.5858 19 11.25 18.6642 11.25 18.25V17.75C11.25 17.3358 11.5858 17 12 17Z" fill="#192435"/>
<path d="M12 2.5C6.47715 2.5 2 6.97715 2 12.5C2 18.0228 6.47715 22.5 12 22.5C17.5228 22.5 22 18.0228 22 12.5C22 6.97715 17.5228 2.5 12 2.5ZM3.46341 12.5C3.46341 7.78537 7.28537 3.96341 12 3.96341C16.7146 3.96341 20.5366 7.78537 20.5366 12.5C20.5366 17.2146 16.7146 21.0366 12 21.0366C7.28537 21.0366 3.46341 17.2146 3.46341 12.5Z" fill="#192435"/>
</svg>
